<?xml version="1.0" standalone="no"?>
<!DOCTYPE svg PUBLIC "-//W3C//DTD SVG 20010904//EN"
 "http://www.w3.org/TR/2001/REC-SVG-20010904/DTD/svg10.dtd">
<svg version="1.0" xmlns="http://www.w3.org/2000/svg"
 width="600.000000pt" height="168.000000pt" viewBox="0 0 600.000000 168.000000"
 preserveAspectRatio="xMidYMid meet">

<g transform="translate(0.000000,168.000000) scale(0.100000,-0.100000)"
fill="#000000" stroke="none">
<path d="M580 1056 c-60 -32 -122 -101 -145 -159 -13 -35 -16 -64 -13 -116 10
-136 101 -235 235 -257 80 -12 213 48 213 97 0 10 -2 19 -4 19 -2 0 -34 -14
-70 -31 -56 -26 -76 -31 -121 -27 -105 9 -185 91 -193 199 -13 182 158 299
316 216 63 -33 74 -34 70 -5 -2 13 -22 35 -46 53 -38 26 -53 30 -120 33 -65 2
-84 -2 -122 -22z"/>
<path d="M1100 1072 l-25 -8 0 -264 0 -265 28 -3 27 -3 0 88 c0 128 3 133 59
133 25 0 51 -4 56 -8 6 -4 28 -36 49 -72 62 -102 95 -140 122 -140 21 0 23 2
13 26 -5 15 -35 65 -66 111 l-57 84 36 29 c50 41 72 91 63 146 -7 50 -49 105
-98 131 -33 17 -168 27 -207 15z m180 -61 c32 -9 70 -66 70 -106 0 -21 -9 -40
-27 -57 -37 -36 -73 -48 -139 -48 l-54 0 0 100 c0 84 3 101 18 109 19 12 94
13 132 2z"/>
<path d="M2345 1072 c-11 -2 -23 -9 -28 -16 -8 -12 -8 -216 0 -404 l6 -123 26
3 26 3 5 120 5 120 112 3 c100 2 114 5 123 22 14 26 8 28 -115 32 -55 2 -106
7 -112 11 -15 9 -18 152 -5 161 5 3 71 6 146 7 144 1 166 8 166 50 0 19 -7 19
-167 17 -93 -1 -177 -4 -188 -6z"/>
<path d="M2822 1048 c2 -30 -2 -29 111 -33 38 -1 62 -6 68 -16 5 -8 8 -110 7
-237 l-3 -222 30 0 30 0 3 228 c2 125 7 230 10 234 7 6 80 16 133 17 28 1 42
21 33 46 -6 16 -69 16 -106 0 -11 -4 -18 -3 -18 4 0 7 -46 10 -150 8 l-150 -2
2 -27z"/>
<path d="M3498 1073 l-78 -4 0 -263 c0 -231 2 -265 16 -270 9 -3 91 -6 184 -6
163 0 169 1 175 21 4 12 3 25 -2 30 -5 5 -76 10 -158 11 l-150 3 -3 81 c-2 58
1 84 11 92 7 6 60 13 118 14 104 3 104 3 104 28 0 24 -2 25 -58 22 -32 -2 -84
-1 -117 3 l-60 7 0 79 c0 55 4 81 13 84 6 2 75 6 151 7 l140 3 7 27 c4 15 4
29 1 32 -5 6 -146 5 -294 -1z"/>
<path d="M4018 1073 l-28 -4 0 -254 c0 -139 3 -260 6 -269 5 -13 23 -16 98
-16 163 0 247 43 302 156 24 49 26 63 21 128 -3 46 -13 89 -27 115 -29 59 -91
115 -142 130 -45 14 -184 23 -230 14z m219 -68 c52 -22 72 -42 99 -100 59
-124 4 -271 -114 -305 -20 -6 -66 -10 -102 -8 l-65 3 -3 199 c-2 138 1 203 9
212 16 19 130 18 176 -1z"/>
<path d="M4663 1073 l-43 -4 0 -257 c0 -141 4 -263 9 -270 14 -22 245 -13 294
12 55 27 87 79 87 140 0 46 -3 53 -46 93 l-46 43 32 36 c29 33 32 42 27 82 -4
34 -13 53 -40 79 -48 48 -117 60 -274 46z m216 -68 c33 -16 41 -33 41 -81 0
-32 -4 -37 -45 -55 -34 -15 -62 -19 -117 -17 l-73 3 -3 73 c-3 67 -1 73 20 82
37 14 146 12 177 -5z m27 -234 c63 -38 68 -112 11 -155 -25 -18 -42 -21 -130
-21 l-102 0 -3 98 -3 97 98 0 c78 0 104 -4 129 -19z"/>
<path d="M5111 1071 c-20 -13 -12 -29 81 -172 106 -162 102 -153 108 -264 5
-99 5 -100 30 -100 25 0 25 1 28 97 l3 98 91 137 c88 134 119 195 104 210 -4
4 -15 3 -24 -3 -20 -13 -106 -136 -149 -214 -39 -70 -61 -75 -91 -18 -33 64
-146 231 -157 235 -5 1 -16 -1 -24 -6z"/>
</g>
</svg>
